<mxfile host="Electron" agent="Mozilla/5.0 (Windows NT 10.0; Win64; x64) AppleWebKit/537.36 (KHTML, like Gecko) draw.io/28.0.6 Chrome/138.0.7204.100 Electron/37.2.3 Safari/537.36" version="28.0.6">
  <diagram name="Strona-1" id="hohp-9NUOAqufu81gWvG">
    <mxGraphModel dx="2226" dy="1241" grid="0" gridSize="10" guides="1" tooltips="1" connect="1" arrows="1" fold="1" page="0" pageScale="1" pageWidth="827" pageHeight="1169" math="0" shadow="0">
      <root>
        <mxCell id="0" />
        <mxCell id="1" parent="0" />
        <mxCell id="P9KAgL1xu06Vc_QnKzsW-60" value="&#xa;&lt;b style=&quot;forced-color-adjust: none; color: rgb(0, 0, 0); font-family: Helvetica; font-size: 14px; font-style: normal; font-variant-ligatures: normal; font-variant-caps: normal; letter-spacing: normal; orphans: 2; text-align: center; text-indent: 0px; text-transform: none; widows: 2; word-spacing: 0px; -webkit-text-stroke-width: 0px; white-space: normal; background-color: rgb(236, 236, 236); text-decoration-thickness: initial; text-decoration-style: initial; text-decoration-color: initial;&quot;&gt;CUSTOMER&lt;/b&gt;&#xa;&#xa;" style="rounded=1;whiteSpace=wrap;html=1;fillColor=none;dashed=1;dashPattern=12 12;" parent="1" vertex="1">
          <mxGeometry x="160" y="100" width="660" height="480" as="geometry" />
        </mxCell>
        <mxCell id="P9KAgL1xu06Vc_QnKzsW-27" value="&lt;font style=&quot;font-size: 14px;&quot;&gt;&lt;b&gt;crm_cust_info&lt;/b&gt;&lt;/font&gt;" style="swimlane;fontStyle=0;childLayout=stackLayout;horizontal=1;startSize=30;horizontalStack=0;resizeParent=1;resizeParentMax=0;resizeLast=0;collapsible=1;marginBottom=0;whiteSpace=wrap;html=1;fillColor=#dae8fc;strokeColor=#6c8ebf;" parent="1" vertex="1">
          <mxGeometry x="-150" y="400" width="240" height="90" as="geometry" />
        </mxCell>
        <mxCell id="P9KAgL1xu06Vc_QnKzsW-28" value="&lt;font style=&quot;font-size: 14px;&quot;&gt;cst_id&lt;/font&gt;" style="text;strokeColor=none;fillColor=none;align=left;verticalAlign=middle;spacingLeft=4;spacingRight=4;overflow=hidden;points=[[0,0.5],[1,0.5]];portConstraint=eastwest;rotatable=0;whiteSpace=wrap;html=1;" parent="P9KAgL1xu06Vc_QnKzsW-27" vertex="1">
          <mxGeometry y="30" width="240" height="30" as="geometry" />
        </mxCell>
        <mxCell id="P9KAgL1xu06Vc_QnKzsW-48" value="&lt;font style=&quot;font-size: 14px;&quot;&gt;cst_key&lt;/font&gt;" style="text;strokeColor=none;fillColor=none;align=left;verticalAlign=middle;spacingLeft=4;spacingRight=4;overflow=hidden;points=[[0,0.5],[1,0.5]];portConstraint=eastwest;rotatable=0;whiteSpace=wrap;html=1;" parent="P9KAgL1xu06Vc_QnKzsW-27" vertex="1">
          <mxGeometry y="60" width="240" height="30" as="geometry" />
        </mxCell>
        <mxCell id="P9KAgL1xu06Vc_QnKzsW-31" value="&lt;font style=&quot;font-size: 14px;&quot;&gt;Customer Information&lt;/font&gt;" style="whiteSpace=wrap;html=1;strokeColor=none;fillColor=none;glass=0;dashed=1;dashPattern=12 12;" parent="1" vertex="1">
          <mxGeometry x="-150" y="370" width="240" height="30" as="geometry" />
        </mxCell>
        <mxCell id="P9KAgL1xu06Vc_QnKzsW-32" value="&lt;font style=&quot;font-size: 14px;&quot;&gt;&lt;b&gt;crm_prd_info&lt;/b&gt;&lt;/font&gt;" style="swimlane;fontStyle=0;childLayout=stackLayout;horizontal=1;startSize=30;horizontalStack=0;resizeParent=1;resizeParentMax=0;resizeLast=0;collapsible=1;marginBottom=0;whiteSpace=wrap;html=1;fillColor=#dae8fc;strokeColor=#6c8ebf;" parent="1" vertex="1">
          <mxGeometry x="-150" y="220" width="240" height="60" as="geometry" />
        </mxCell>
        <mxCell id="P9KAgL1xu06Vc_QnKzsW-33" value="&lt;font style=&quot;font-size: 14px;&quot;&gt;prd_key&lt;/font&gt;" style="text;strokeColor=none;fillColor=none;align=left;verticalAlign=middle;spacingLeft=4;spacingRight=4;overflow=hidden;points=[[0,0.5],[1,0.5]];portConstraint=eastwest;rotatable=0;whiteSpace=wrap;html=1;" parent="P9KAgL1xu06Vc_QnKzsW-32" vertex="1">
          <mxGeometry y="30" width="240" height="30" as="geometry" />
        </mxCell>
        <mxCell id="P9KAgL1xu06Vc_QnKzsW-34" value="&lt;font style=&quot;font-size: 14px;&quot;&gt;Current &amp;amp; History Product Information&lt;/font&gt;" style="whiteSpace=wrap;html=1;strokeColor=none;fillColor=none;glass=0;dashed=1;dashPattern=12 12;" parent="1" vertex="1">
          <mxGeometry x="-150" y="190" width="240" height="30" as="geometry" />
        </mxCell>
        <mxCell id="P9KAgL1xu06Vc_QnKzsW-37" value="&lt;font style=&quot;font-size: 14px;&quot;&gt;&lt;b&gt;crm_prd_info&lt;/b&gt;&lt;/font&gt;" style="swimlane;fontStyle=0;childLayout=stackLayout;horizontal=1;startSize=30;horizontalStack=0;resizeParent=1;resizeParentMax=0;resizeLast=0;collapsible=1;marginBottom=0;whiteSpace=wrap;html=1;fillColor=#dae8fc;strokeColor=#6c8ebf;" parent="1" vertex="1">
          <mxGeometry x="-510" y="280" width="240" height="90" as="geometry" />
        </mxCell>
        <mxCell id="P9KAgL1xu06Vc_QnKzsW-38" value="&lt;font style=&quot;font-size: 14px;&quot;&gt;prd_key&lt;/font&gt;" style="text;strokeColor=none;fillColor=none;align=left;verticalAlign=middle;spacingLeft=4;spacingRight=4;overflow=hidden;points=[[0,0.5],[1,0.5]];portConstraint=eastwest;rotatable=0;whiteSpace=wrap;html=1;" parent="P9KAgL1xu06Vc_QnKzsW-37" vertex="1">
          <mxGeometry y="30" width="240" height="30" as="geometry" />
        </mxCell>
        <mxCell id="P9KAgL1xu06Vc_QnKzsW-42" value="&lt;font style=&quot;font-size: 14px;&quot;&gt;cst_id&lt;/font&gt;" style="text;strokeColor=none;fillColor=none;align=left;verticalAlign=middle;spacingLeft=4;spacingRight=4;overflow=hidden;points=[[0,0.5],[1,0.5]];portConstraint=eastwest;rotatable=0;whiteSpace=wrap;html=1;" parent="P9KAgL1xu06Vc_QnKzsW-37" vertex="1">
          <mxGeometry y="60" width="240" height="30" as="geometry" />
        </mxCell>
        <mxCell id="P9KAgL1xu06Vc_QnKzsW-39" value="&lt;font style=&quot;font-size: 14px;&quot;&gt;Transactional Records about Sales &amp;amp; Orders&lt;/font&gt;" style="whiteSpace=wrap;html=1;strokeColor=none;fillColor=none;glass=0;dashed=1;dashPattern=12 12;" parent="1" vertex="1">
          <mxGeometry x="-510" y="250" width="240" height="30" as="geometry" />
        </mxCell>
        <mxCell id="P9KAgL1xu06Vc_QnKzsW-43" style="edgeStyle=orthogonalEdgeStyle;rounded=0;orthogonalLoop=1;jettySize=auto;html=1;" parent="1" source="P9KAgL1xu06Vc_QnKzsW-38" target="P9KAgL1xu06Vc_QnKzsW-33" edge="1">
          <mxGeometry relative="1" as="geometry" />
        </mxCell>
        <mxCell id="P9KAgL1xu06Vc_QnKzsW-44" style="edgeStyle=orthogonalEdgeStyle;rounded=0;orthogonalLoop=1;jettySize=auto;html=1;entryX=0;entryY=0.5;entryDx=0;entryDy=0;" parent="1" source="P9KAgL1xu06Vc_QnKzsW-42" target="P9KAgL1xu06Vc_QnKzsW-28" edge="1">
          <mxGeometry relative="1" as="geometry" />
        </mxCell>
        <mxCell id="P9KAgL1xu06Vc_QnKzsW-45" value="&lt;font style=&quot;font-size: 14px;&quot;&gt;&lt;b&gt;erp_cust_az12&lt;/b&gt;&lt;/font&gt;" style="swimlane;fontStyle=0;childLayout=stackLayout;horizontal=1;startSize=30;horizontalStack=0;resizeParent=1;resizeParentMax=0;resizeLast=0;collapsible=1;marginBottom=0;whiteSpace=wrap;html=1;fillColor=#ffe6cc;strokeColor=#d79b00;" parent="1" vertex="1">
          <mxGeometry x="370" y="310" width="240" height="60" as="geometry" />
        </mxCell>
        <mxCell id="P9KAgL1xu06Vc_QnKzsW-46" value="&lt;font style=&quot;font-size: 14px;&quot;&gt;cid&lt;/font&gt;" style="text;strokeColor=none;fillColor=none;align=left;verticalAlign=middle;spacingLeft=4;spacingRight=4;overflow=hidden;points=[[0,0.5],[1,0.5]];portConstraint=eastwest;rotatable=0;whiteSpace=wrap;html=1;" parent="P9KAgL1xu06Vc_QnKzsW-45" vertex="1">
          <mxGeometry y="30" width="240" height="30" as="geometry" />
        </mxCell>
        <mxCell id="P9KAgL1xu06Vc_QnKzsW-47" value="&lt;font style=&quot;font-size: 14px;&quot;&gt;Extra Customer Information (Birthdate)&lt;/font&gt;" style="whiteSpace=wrap;html=1;strokeColor=none;fillColor=none;glass=0;dashed=1;dashPattern=12 12;" parent="1" vertex="1">
          <mxGeometry x="350" y="280" width="280" height="30" as="geometry" />
        </mxCell>
        <mxCell id="P9KAgL1xu06Vc_QnKzsW-49" style="edgeStyle=orthogonalEdgeStyle;rounded=0;orthogonalLoop=1;jettySize=auto;html=1;entryX=1.013;entryY=0.933;entryDx=0;entryDy=0;entryPerimeter=0;" parent="1" source="P9KAgL1xu06Vc_QnKzsW-46" target="P9KAgL1xu06Vc_QnKzsW-28" edge="1">
          <mxGeometry relative="1" as="geometry" />
        </mxCell>
        <mxCell id="P9KAgL1xu06Vc_QnKzsW-50" value="&lt;font style=&quot;font-size: 14px;&quot;&gt;&lt;b&gt;erp_loc_a101&lt;/b&gt;&lt;/font&gt;" style="swimlane;fontStyle=0;childLayout=stackLayout;horizontal=1;startSize=30;horizontalStack=0;resizeParent=1;resizeParentMax=0;resizeLast=0;collapsible=1;marginBottom=0;whiteSpace=wrap;html=1;fillColor=#ffe6cc;strokeColor=#d79b00;" parent="1" vertex="1">
          <mxGeometry x="370" y="450" width="240" height="60" as="geometry" />
        </mxCell>
        <mxCell id="P9KAgL1xu06Vc_QnKzsW-51" value="&lt;font style=&quot;font-size: 14px;&quot;&gt;cid&lt;/font&gt;" style="text;strokeColor=none;fillColor=none;align=left;verticalAlign=middle;spacingLeft=4;spacingRight=4;overflow=hidden;points=[[0,0.5],[1,0.5]];portConstraint=eastwest;rotatable=0;whiteSpace=wrap;html=1;" parent="P9KAgL1xu06Vc_QnKzsW-50" vertex="1">
          <mxGeometry y="30" width="240" height="30" as="geometry" />
        </mxCell>
        <mxCell id="P9KAgL1xu06Vc_QnKzsW-52" value="&lt;font style=&quot;font-size: 14px;&quot;&gt;Location of Customers (Country)&lt;/font&gt;" style="whiteSpace=wrap;html=1;strokeColor=none;fillColor=none;glass=0;dashed=1;dashPattern=12 12;" parent="1" vertex="1">
          <mxGeometry x="370" y="420" width="240" height="30" as="geometry" />
        </mxCell>
        <mxCell id="P9KAgL1xu06Vc_QnKzsW-54" style="edgeStyle=orthogonalEdgeStyle;rounded=0;orthogonalLoop=1;jettySize=auto;html=1;entryX=1.013;entryY=0.933;entryDx=0;entryDy=0;entryPerimeter=0;" parent="1" source="P9KAgL1xu06Vc_QnKzsW-51" target="P9KAgL1xu06Vc_QnKzsW-28" edge="1">
          <mxGeometry relative="1" as="geometry" />
        </mxCell>
        <mxCell id="P9KAgL1xu06Vc_QnKzsW-55" value="&lt;font style=&quot;font-size: 14px;&quot;&gt;&lt;b&gt;erp_px_cat_g1v2&lt;/b&gt;&lt;/font&gt;" style="swimlane;fontStyle=0;childLayout=stackLayout;horizontal=1;startSize=30;horizontalStack=0;resizeParent=1;resizeParentMax=0;resizeLast=0;collapsible=1;marginBottom=0;whiteSpace=wrap;html=1;fillColor=#ffe6cc;strokeColor=#d79b00;" parent="1" vertex="1">
          <mxGeometry x="370" y="170" width="240" height="60" as="geometry" />
        </mxCell>
        <mxCell id="P9KAgL1xu06Vc_QnKzsW-56" value="&lt;font style=&quot;font-size: 14px;&quot;&gt;id&lt;/font&gt;" style="text;strokeColor=none;fillColor=none;align=left;verticalAlign=middle;spacingLeft=4;spacingRight=4;overflow=hidden;points=[[0,0.5],[1,0.5]];portConstraint=eastwest;rotatable=0;whiteSpace=wrap;html=1;" parent="P9KAgL1xu06Vc_QnKzsW-55" vertex="1">
          <mxGeometry y="30" width="240" height="30" as="geometry" />
        </mxCell>
        <mxCell id="P9KAgL1xu06Vc_QnKzsW-57" value="Product Categories" style="whiteSpace=wrap;html=1;strokeColor=none;fillColor=none;glass=0;dashed=1;dashPattern=12 12;" parent="1" vertex="1">
          <mxGeometry x="370" y="140" width="240" height="30" as="geometry" />
        </mxCell>
        <mxCell id="P9KAgL1xu06Vc_QnKzsW-58" style="edgeStyle=orthogonalEdgeStyle;rounded=0;orthogonalLoop=1;jettySize=auto;html=1;entryX=1;entryY=0.5;entryDx=0;entryDy=0;" parent="1" source="P9KAgL1xu06Vc_QnKzsW-56" target="P9KAgL1xu06Vc_QnKzsW-33" edge="1">
          <mxGeometry relative="1" as="geometry" />
        </mxCell>
        <mxCell id="P9KAgL1xu06Vc_QnKzsW-59" value="" style="rounded=1;whiteSpace=wrap;html=1;fillColor=none;dashed=1;dashPattern=12 12;" parent="1" vertex="1">
          <mxGeometry x="-530" y="100" width="660" height="480" as="geometry" />
        </mxCell>
        <mxCell id="P9KAgL1xu06Vc_QnKzsW-61" value="&lt;font style=&quot;font-size: 30px;&quot;&gt;&lt;b&gt;CRM&lt;/b&gt;&lt;/font&gt;" style="rounded=1;whiteSpace=wrap;html=1;fillColor=#dae8fc;strokeColor=#6c8ebf;" parent="1" vertex="1">
          <mxGeometry x="-260" y="70" width="120" height="60" as="geometry" />
        </mxCell>
        <mxCell id="P9KAgL1xu06Vc_QnKzsW-62" value="&lt;span style=&quot;font-size: 30px;&quot;&gt;&lt;b&gt;ERP&lt;/b&gt;&lt;/span&gt;" style="rounded=1;whiteSpace=wrap;html=1;fillColor=#dae8fc;strokeColor=#6c8ebf;" parent="1" vertex="1">
          <mxGeometry x="440" y="70" width="120" height="60" as="geometry" />
        </mxCell>
        <mxCell id="GlpDdY1nph-m-aoQc-yc-7" value="&lt;font style=&quot;font-size: 14px;&quot;&gt;&lt;b&gt;PRODUCT&lt;/b&gt;&lt;/font&gt;" style="rounded=0;whiteSpace=wrap;html=1;fillColor=#f8cecc;strokeColor=#b85450;" parent="1" vertex="1">
          <mxGeometry x="370" y="230" width="240" height="27" as="geometry" />
        </mxCell>
        <mxCell id="GlpDdY1nph-m-aoQc-yc-8" value="&lt;font style=&quot;font-size: 14px;&quot;&gt;Customer Relationship Management&lt;/font&gt;" style="rounded=0;whiteSpace=wrap;html=1;strokeColor=none;gradientColor=none;fillColor=none;" parent="1" vertex="1">
          <mxGeometry x="-391.5" y="40" width="383" height="30" as="geometry" />
        </mxCell>
        <mxCell id="GlpDdY1nph-m-aoQc-yc-9" value="&lt;font style=&quot;font-size: 14px;&quot;&gt;Enterprise Resource Planning&lt;/font&gt;" style="rounded=1;whiteSpace=wrap;html=1;fillColor=none;strokeColor=none;" parent="1" vertex="1">
          <mxGeometry x="298.5" y="40" width="383" height="30" as="geometry" />
        </mxCell>
        <mxCell id="GlpDdY1nph-m-aoQc-yc-10" value="&lt;font style=&quot;font-size: 14px;&quot;&gt;&lt;b&gt;PRODUCT&lt;/b&gt;&lt;/font&gt;" style="rounded=0;whiteSpace=wrap;html=1;fillColor=#f8cecc;strokeColor=#b85450;" parent="1" vertex="1">
          <mxGeometry x="-150" y="278" width="240" height="27" as="geometry" />
        </mxCell>
        <mxCell id="GlpDdY1nph-m-aoQc-yc-11" value="&lt;font style=&quot;font-size: 14px;&quot;&gt;&lt;b&gt;SALES&lt;/b&gt;&lt;/font&gt;" style="rounded=0;whiteSpace=wrap;html=1;fillColor=#e1d5e7;strokeColor=#9673a6;" parent="1" vertex="1">
          <mxGeometry x="-510" y="370" width="240" height="27" as="geometry" />
        </mxCell>
        <mxCell id="GlpDdY1nph-m-aoQc-yc-12" value="&lt;font style=&quot;font-size: 14px;&quot;&gt;&lt;b&gt;CUSTOMER&lt;/b&gt;&lt;/font&gt;" style="rounded=0;whiteSpace=wrap;html=1;fillColor=#d5e8d4;strokeColor=#82b366;" parent="1" vertex="1">
          <mxGeometry x="-150" y="490" width="240" height="27" as="geometry" />
        </mxCell>
        <mxCell id="GlpDdY1nph-m-aoQc-yc-13" value="&lt;font style=&quot;font-size: 14px;&quot;&gt;&lt;b&gt;CUSTOMER&lt;/b&gt;&lt;/font&gt;" style="rounded=0;whiteSpace=wrap;html=1;fillColor=#d5e8d4;strokeColor=#82b366;" parent="1" vertex="1">
          <mxGeometry x="370" y="370" width="240" height="27" as="geometry" />
        </mxCell>
        <mxCell id="GlpDdY1nph-m-aoQc-yc-14" value="&lt;font style=&quot;font-size: 14px;&quot;&gt;&lt;b&gt;CUSTOMER&lt;/b&gt;&lt;/font&gt;" style="rounded=0;whiteSpace=wrap;html=1;fillColor=#d5e8d4;strokeColor=#82b366;" parent="1" vertex="1">
          <mxGeometry x="370" y="510" width="240" height="27" as="geometry" />
        </mxCell>
        <mxCell id="GlpDdY1nph-m-aoQc-yc-15" value="&lt;font style=&quot;font-size: 20px;&quot;&gt;&lt;b&gt;Data Integration&amp;nbsp;&lt;/b&gt;&lt;/font&gt; &amp;nbsp;&lt;font style=&quot;font-size: 14px;&quot;&gt;(how tables are related)&lt;/font&gt;" style="rounded=1;whiteSpace=wrap;html=1;strokeColor=default;fillColor=none;" parent="1" vertex="1">
          <mxGeometry x="-376" y="-55" width="1064" height="60" as="geometry" />
        </mxCell>
      </root>
    </mxGraphModel>
  </diagram>
</mxfile>
